# xmcd
#
# Track frame offsets:
#	150
#	26819
#	40302
#	58815
#	78062
#	90387
#	105757
#	122147
#	135490
#	150951
#
# Disc length: 2280 seconds
# Revision: 0
# Processed by: cddbd v1.5.2PL0 Copyright (c) Steve Scherf et al.
# Submitted via: dBpowerAMP V12.0
#
DISCID=6b08e60a
DTITLE=Lazy Eye - Single Malt Blues
DYEAR=2015
DGENRE=Blues
TTITLE0=Blue Tongue Blues
TTITLE1=Pass It On Back
TTITLE2=Disagreeable Woman
TTITLE3=Down Home
TTITLE4=Country Preacher Blues
TTITLE5=Don't Call The Doctor
TTITLE6=Running Blind
TTITLE7=Mean Thing
TTITLE8=Organ Grinder
TTITLE9=Single Malt Blues
EXTD=
EXTT0=
EXTT1=
EXTT2=
EXTT3=
EXTT4=
EXTT5=
EXTT6=
EXTT7=
EXTT8=
EXTT9=
PLAYORDER=
